<?xml version="1.0" standalone="no"?>
<!DOCTYPE svg PUBLIC "-//W3C//DTD SVG 20010904//EN"
 "http://www.w3.org/TR/2001/REC-SVG-20010904/DTD/svg10.dtd">
<svg version="1.0" xmlns="http://www.w3.org/2000/svg"
 width="1499.000000pt" height="1499.000000pt" viewBox="0 0 1499.000000 1499.000000"
 preserveAspectRatio="xMidYMid meet">
<metadata>
Created by potrace 1.14, written by Peter Selinger 2001-2017
</metadata>
<g transform="translate(0.000000,1499.000000) scale(0.100000,-0.100000)"
fill="#000000" stroke="none">
<path d="M5687 13384 c-1 -1 -62 -5 -135 -8 -73 -4 -138 -9 -145 -11 -7 -2
-46 -6 -87 -10 -88 -7 -231 -28 -385 -55 -60 -11 -128 -19 -150 -19 -56 0
-271 -55 -332 -85 -28 -14 -55 -26 -61 -26 -24 0 -320 -102 -432 -150 -383
-161 -861 -452 -1126 -685 -7 -5 -43 -37 -80 -70 -108 -93 -412 -401 -494
-500 -341 -410 -570 -807 -714 -1235 -61 -182 -116 -449 -132 -640 -7 -83 -7
-2125 1 -3305 2 -330 6 -1102 10 -1715 4 -613 8 -1272 10 -1465 l3 -349 103
-2 c57 -1 123 -6 147 -9 l42 -7 0 -60 0 -59 153 5 c83 4 586 13 1117 21 531 8
1029 18 1108 21 l142 6 0 437 c0 241 3 1005 7 1699 l6 1262 154 0 153 0 0 -24
c0 -13 5 -26 11 -28 6 -2 24 -78 40 -170 86 -498 215 -906 425 -1336 228 -467
485 -825 861 -1198 84 -83 153 -156 153 -161 0 -21 347 -319 505 -435 637
-465 1323 -722 2185 -819 151 -18 716 -18 870 -1 1046 115 1767 400 2514 994
156 124 429 387 578 557 402 459 690 991 814 1507 63 261 67 315 72 984 4 559
-8 3082 -25 5349 l-6 893 -52 -6 -52 -6 -7 46 c-3 26 -6 94 -6 152 l0 104
-482 -7 c-266 -3 -575 -8 -688 -10 -113 -3 -329 -7 -480 -9 -722 -13 -945 -18
-949 -22 -5 -4 -8 -432 -15 -1914 -7 -1294 -11 -1594 -22 -1623 -5 -15 -29
-17 -213 -17 -113 0 -223 5 -243 10 -87 25 -133 139 -163 405 -5 45 -18 125
-29 180 -108 514 -232 878 -440 1285 -29 58 -63 121 -75 140 -11 19 -24 42
-28 50 -22 48 -205 331 -235 364 -10 11 -18 23 -18 27 0 4 -6 14 -13 21 -7 7
-35 42 -62 78 -52 68 -66 85 -103 128 -13 15 -33 40 -45 55 -27 35 -327 339
-382 387 -122 107 -395 320 -410 320 -3 0 -30 18 -60 40 -30 22 -58 40 -64 40
-5 0 -11 3 -13 8 -1 4 -37 27 -78 52 -256 153 -581 302 -840 387 -58 19 -114
38 -125 42 -11 5 -40 13 -65 20 -25 6 -90 23 -145 37 -83 21 -185 44 -310 68
-20 4 -128 21 -200 31 -22 3 -62 8 -90 11 -27 2 -63 7 -80 9 -92 12 -587 28
-598 19z m628 -2849 c371 -56 691 -227 915 -487 72 -84 169 -230 201 -303 37
-86 79 -321 92 -517 l5 -68 -677 0 -676 0 -134 134 -135 135 -95 -88 c-53 -48
-220 -197 -371 -331 -488 -434 -780 -713 -1080 -1035 l-75 -80 -3 280 c-1 154
2 451 7 660 9 350 12 388 34 486 111 474 469 890 933 1086 145 61 381 119 554
136 104 11 414 6 505 -8z m4484 -3090 c-10 -951 -16 -1080 -58 -1246 -141
-555 -624 -1019 -1212 -1163 -314 -77 -680 -91 -950 -36 -290 59 -585 203
-744 364 -169 171 -325 632 -325 962 l0 64 627 0 628 0 92 -92 92 -92 60 55
c33 30 127 115 208 189 81 75 218 196 303 270 464 402 763 693 950 926 128
159 231 315 260 391 25 67 50 174 50 219 0 33 9 49 20 37 4 -5 3 -386 -1 -848z"/>
<path d="M1475 2034 c-20 -14 -20 -28 -23 -563 l-3 -549 23 -27 23 -27 20 22
c19 21 20 41 25 438 3 269 9 417 15 419 6 2 34 -63 62 -144 123 -354 226 -641
243 -680 21 -48 43 -55 80 -25 l23 19 -1 524 c0 628 1 574 -18 593 -20 21 -30
20 -52 -2 -17 -17 -18 -46 -18 -435 1 -229 -1 -412 -2 -407 -2 6 -9 7 -14 4
-7 -4 -8 -2 -4 4 4 7 3 12 -3 12 -5 0 -23 39 -39 88 -31 89 -110 315 -201 571
-64 181 -84 205 -136 165z"/>
<path d="M6418 2031 c-10 -15 -13 -130 -13 -568 0 -581 0 -583 45 -583 40 0
45 24 46 237 l1 205 58 84 c31 46 60 84 65 84 15 0 29 -28 155 -305 70 -154
132 -286 137 -292 22 -27 68 -4 68 34 0 10 -29 81 -64 158 -111 244 -127 280
-126 283 1 1 -8 19 -19 40 -35 64 -81 171 -81 185 0 12 64 117 93 152 4 6 39
57 77 115 38 58 73 110 79 117 15 16 14 35 -2 57 -17 24 -47 15 -69 -21 -121
-191 -344 -512 -355 -513 -16 0 -14 -25 -16 271 -2 258 -6 279 -48 279 -10 0
-24 -8 -31 -19z"/>
<path d="M8051 2026 c-12 -14 -16 -127 -7 -171 2 -11 7 -56 11 -100 3 -44 8
-96 10 -115 12 -129 17 -180 20 -217 2 -23 6 -61 9 -85 3 -24 8 -79 11 -123 4
-44 8 -91 10 -105 2 -14 6 -59 10 -100 8 -98 12 -108 43 -124 49 -25 76 13 87
120 3 31 7 69 9 83 6 35 18 130 21 161 3 28 15 123 20 160 2 14 6 52 10 85 3
33 8 67 10 75 4 15 17 125 18 148 0 7 5 11 11 9 10 -3 29 -114 40 -237 3 -30
7 -71 10 -90 3 -19 8 -57 11 -85 3 -27 8 -63 10 -80 3 -16 7 -52 10 -80 7 -62
15 -124 20 -150 2 -11 4 -34 4 -51 2 -59 59 -95 95 -58 16 16 17 19 21 64 1
14 5 52 9 85 9 83 14 128 21 215 3 41 8 86 10 100 2 14 7 61 10 105 7 86 9
110 19 195 20 186 26 341 15 363 -12 21 -32 22 -48 3 -18 -22 -39 -166 -57
-401 -6 -86 -8 -107 -20 -230 -4 -44 -7 -92 -7 -107 0 -16 -6 -28 -13 -28 -7
0 -15 24 -19 63 -4 34 -9 69 -10 78 -2 9 -6 40 -10 70 -3 30 -10 90 -16 134
-5 44 -12 96 -14 115 -34 276 -52 332 -103 316 -31 -10 -48 -67 -66 -216 -3
-25 -13 -99 -21 -165 -9 -66 -18 -140 -21 -165 -20 -175 -30 -235 -38 -233
-11 3 -14 16 -21 103 -2 36 -7 88 -10 115 -2 28 -7 79 -10 115 -3 36 -7 85
-10 110 -2 25 -7 79 -10 120 -9 109 -23 182 -39 209 -10 15 -31 14 -45 -3z"/>
<path d="M9982 2028 c-30 -38 -70 -162 -95 -298 -3 -14 -13 -54 -22 -90 -14
-56 -75 -316 -91 -390 -4 -20 -34 -147 -49 -210 -24 -97 -27 -131 -15 -145 18
-22 47 -18 64 8 11 19 65 227 82 323 3 15 7 30 8 31 8 8 288 5 295 -3 7 -8 41
-154 57 -239 3 -15 12 -50 22 -78 20 -60 49 -74 75 -36 17 23 17 25 -7 114 -8
33 -17 74 -20 91 -3 18 -17 78 -30 135 -14 57 -27 115 -30 129 -10 43 -28 123
-37 165 -5 22 -12 51 -14 65 -3 14 -10 39 -15 55 -4 17 -16 66 -26 110 -21 96
-18 82 -28 129 -21 105 -88 177 -124 134z m50 -203 c3 -16 8 -39 11 -50 7 -26
67 -284 73 -310 2 -11 6 -29 8 -40 2 -11 5 -24 6 -30 7 -33 0 -35 -120 -35
l-120 0 4 25 c3 14 7 33 10 43 3 9 7 28 10 42 2 14 13 61 24 105 11 44 23 94
26 110 3 17 7 39 10 50 3 11 11 43 17 72 13 57 30 65 41 18z"/>
<path d="M3206 2019 c-35 -10 -63 -34 -84 -74 -14 -26 -16 -88 -16 -491 l-1
-461 25 -37 c15 -21 37 -40 55 -45 50 -14 417 -13 436 2 26 21 30 46 10 66
-18 18 -36 19 -216 19 -117 0 -201 4 -208 10 -9 8 -12 67 -12 219 l0 208 199
1 c180 1 201 3 213 20 17 23 16 39 -3 58 -17 17 -23 18 -254 17 l-155 0 0 189
c0 110 5 193 10 199 6 6 99 11 212 13 187 3 203 4 216 23 16 21 4 64 -17 66
-45 6 -388 4 -410 -2z"/>
<path d="M4864 2018 c-45 -13 -65 -33 -83 -85 -14 -42 -16 -107 -16 -483 1
-497 2 -501 69 -530 35 -16 69 -18 243 -16 190 1 203 2 217 21 20 26 20 31 -3
54 -18 18 -35 20 -217 20 -124 0 -201 4 -208 11 -10 10 -18 389 -9 416 2 6 72
10 200 11 179 0 197 2 210 18 29 41 2 75 -60 76 -23 0 -112 1 -197 2 l-155 2
0 178 c0 98 3 186 7 197 7 19 18 20 205 20 214 1 233 5 233 53 0 18 -7 28 -22
34 -30 10 -376 11 -414 1z"/>
<path d="M11486 2019 c-37 -10 -72 -44 -85 -80 -11 -31 -16 -981 -5 -1023 12
-48 69 -44 81 5 5 16 8 130 7 254 0 124 2 226 5 226 31 7 271 3 286 -4 23 -11
65 -55 66 -71 1 -6 3 -80 4 -164 4 -203 23 -282 66 -282 31 0 51 29 45 65 -8
43 -16 148 -20 277 -4 117 -25 180 -72 217 -29 23 -29 29 2 56 13 11 33 43 46
70 19 42 23 67 23 155 0 91 -3 112 -24 153 -30 61 -68 99 -126 127 -38 18 -66
23 -158 25 -62 1 -125 -1 -141 -6z m294 -114 c40 -37 63 -95 68 -176 4 -67 1
-84 -21 -133 -39 -85 -64 -96 -218 -96 l-126 0 1 203 c1 111 5 208 10 215 6
10 38 13 136 10 111 -3 131 -6 150 -23z"/>
<path d="M13152 2014 c-33 -14 -57 -40 -73 -79 -18 -46 -19 -885 -1 -949 22
-76 50 -84 294 -86 186 -1 198 0 218 20 25 25 25 34 -1 59 -20 19 -35 20 -216
19 -130 0 -198 3 -206 11 -7 7 -11 81 -11 218 l-1 208 197 1 c210 0 228 4 228
50 0 39 -29 45 -233 47 l-191 2 0 181 c0 99 3 188 7 197 6 15 29 17 204 17
109 0 203 4 209 8 25 16 33 47 18 67 -14 19 -27 20 -215 20 -129 1 -210 -3
-227 -11z"/>
</g>
</svg>
