<?xml version="1.0" encoding="UTF-8"?>
<svg version="1.1" viewBox="0 0 1000 1000" width="250" height="250" xmlns="http://www.w3.org/2000/svg">
<path transform="translate(369,107)" d="m0 0h42l26 3 25 5 21 6 20 7 24 11 21 12 17 12 13 10 13 12 18 18 9 11 10 13 12 19 10 18 8 17 9 24 8 27 5 25 4 22 3 6 4 2 30 1 1-151 1-85 1-1 25-1 113-2h34l1 1 1 17 6 2 1 4 1 85 1 185v178l-2 17-4 19-7 21-14 29-10 16-14 19-13 15-23 23-14 11-13 10-17 11-16 9-23 11-33 11-25 6-25 4-19 2h-46l-31-4-23-5-26-8-24-10-25-13-18-12-12-9-14-12-13-12-7-8-17-17-9-11-10-13-13-20-11-20-12-28-9-28-7-31-3-18h-21v114l-1 112-1 1-33 1-133 2-2-7-18-2-1-12-1-80-1-278v-36l1-53 4-24 7-23 9-20 10-19 10-15 12-16 13-15 22-22 11-9 17-13 22-14 27-14 21-8 27-9 8-2 34-5zm18 189-18 3-16 5-16 8-10 7-13 11-11 14-8 13-6 16-3 15-1 41v43l4-1 12-13 5-6 6-5 6-7 8-7 12-12 8-7 11-10 11-9 7-7 8-7 10-9 5 3 5 5 5 6 4 3h89l1-1-1-17-3-15-5-12-8-12-10-11-12-9-10-6-19-7-16-3zm332 151-2 11-4 10-7 11-10 13-13 15-17 17-8 7-20 18-11 9-12 11-10 9-7 6h-4l-2-4-8-7h-59l-25 1 2 20 3 14 4 12 8 16 9 10 14 9 12 6 17 5 21 3h16l22-3 19-5 21-10 16-12 13-13 10-15 7-15 4-14 2-18 1-98v-19z" fill="#DC261A"/>
<path transform="translate(862,148)" d="m0 0h34l1 1 1 17 6 2 1 4 1 85 1 185v178l-2 17-4 19-7 21-14 29-10 16-14 19-13 15-23 23-14 11-13 10-17 11-16 9-23 11-33 11-25 6-25 4-19 2h-46l-31-4-23-5-26-8-24-10-25-13-18-12-12-9-14-12-13-12-7-8-17-17-9-11-10-13-13-20-11-20-12-28-9-28-7-31-3-16-5-14-2-2-5-1-23-1v-68l5-5 12-14 14-15 5-6h2l2-4h2l2-4h2l2-4 8-7 12-12 8-7 11-10 11-9 7-7 8-7 10-9 5 3 10 10v2l4 2 4 6 8 7 13 13 8 7 7 6 6 10 2 2-18 3-6 3-3 1-2 5-3 7 2 10 4 1h2l-2-9-1-4 4-6 4-3 9-1v9l-4 18-5 12-5 5h-12v6l1 1h8l7-4 6-9 5-11 2-9 2 1 1 6 2 23h4l1-5 10-19 5-8 3-1-4 20-4 14h20v-3h-9l-1-3 4-17 2-1v4l4-2 5 1v-2h2l4 8 6 2-1-5-5-6v-7l4-8 7-7 4-2 4 1-2 13-5 22-5 6-6 2-1 2h28v1l-14 1 2 4 16 15 9 9 7 8 2 4h2l7 8 11 12 2 2h-89l2 19 5 21 5 13 6 10 8 11 5 5 9 10 13 8 12 6 17 5 21 3h16l22-3 19-5 21-10 16-12 12-12 10-15 7-15 4-14 2-18 1-98v-77l1-6 1-146 1-85 1-1 25-1z" fill="#732C22"/>
<path transform="translate(899,167)" d="m0 0 5 1 1 4 1 85 1 185v178l-2 17-4 19-7 21-14 29-10 16-14 19-13 15-23 23-14 11-13 10-17 11-16 9-23 11-33 11-25 6-25 4-19 2h-46l-31-4-23-5-26-8-24-10-25-13-18-12-12-9-1-2 4 2 20 12 23 11 24 9 25 7 30 6 15 2 21 1h17l32-2 30-5 25-6 22-7 20-8 16-8 18-10 16-11 13-10 14-12 17-16 7-8 12-14 12-17 9-14 8-16 8-18 7-22 3-16 2-26v-191l-1-124v-106z" fill="#B1ADAE"/>
<path transform="translate(382,278)" d="m0 0h20l19 3 16 5 16 8 14 11 8 8 10 13 6 10 2 5-1 3-8-12-9-10-12-9-10-6-19-7-16-3h-31l-18 3-16 5-16 8-10 7-12 10-11 14-8 13-6 16-3 15-2 84 2 1-9 10-6 8h-2v-80l1-31 2-16 5-16 7-14 12-16 12-12 14-10 16-8 18-6 16-3z" fill="#B1ADAE"/>
<path transform="translate(270,559)" d="m0 0h23l6 2 3 4 2 10h-20v114l-1 112-1 1-33 1-133 2-1-1v-6l22-1 119-3h13v-218z" fill="#CCCCCC"/>
<path transform="translate(720,441)" d="m0 0h1v6h-2v8l-4 12-8 12-10 13-13 15-18 18-8 7-20 18-11 9-12 11-10 9-7 6-4-1-7-8-5-2h-82l1 3 2 17 3 14 4 12 5 11-1 2-7-8-9-15-6-16-4-18-1-7v-12h90l10 10v2l3 1 2 3 5-1 10-10 11-9 13-12 11-9 12-11 11-9 9-9 8-7 9-10 12-14 8-11 6-12z" fill="#B1ADAE"/>
<path transform="translate(493,437)" d="m0 0h3l-1 8-11 44v2l9 1v3h-20l1-7 6-26h-2l-2 5-9 16-5 11-4 1-1-1-2-23-1-6-4 13-6 11-4 5-7 4h-8l-2-2 1-6 12-1 4-4 5-12 4-18 1-9-9 2-5 4-2 4 2 13-5 1-3-5-1-7 3-7 3-5 7-4 7-2 14-1 1 1 1 8 1 25 1 1 7-12 11-15z" fill="#ECECEC"/>
<path transform="translate(537,864)" d="m0 0 4 1 2 12 3 38 2-10 5-37 1-3 3-1 3 1 2 9 5 39 1 1 4-43 2-6h5l-5 57-2 17-2 2-5-1-3-15-4-36-1-2-7 50-2 4-5-1-2-12-5-51v-12z" fill="#CCCCCC"/>
<path transform="translate(98,863)" d="m0 0 5 1 4 10 13 36 4 9v-22l1-33h6v69l-1 8-5-1-4-9-12-33-5-13v-2h-2l1 4v52l-2 2h-4l-1-4v-53l1-20z" fill="#CCCCCC"/>
<path transform="translate(523,441)" d="m0 0h18l7 4 3 4 1 7-5 8-5 4-7 3-9 1-3 11-1 6 10 1 1 3-27 1-2-1 1-3 7-3 3-4 6-26 1-9-5 1-8 7-4 8v7l6 7-1 5-6-2-4-7-1-2v-8l5-10 5-6 6-4z" fill="#E2E8E9"/>
<path transform="translate(766,865)" d="m0 0h18l7 4 5 8 1 4v7l-3 10-2 3 1 4 3 6 2 29-5 1-2-2-1-6-1-21-1-4-5-1-17-1v34l-5 1-1-1-1-37v-25l2-10zm1 6-1 1v28h18l4-4 2-4 1-9-3-8-3-3-3-1z" fill="#CCCCCC"/>
<path transform="translate(627,441)" d="m0 0h24l4 1v7l-5 2-2-3-11-1-4 1-3 14 9 1 3-2 4 1-1 7-5 1-1-2h-10l-7 19h11l5 1h8l1-6v-2l5 1 1 1v6l-4 5-2 1h-15l-15-1h-11l1-3 6-4 4-9 8-31-10 4-6 9 1 9 1 6h-5l-3-5-1-6 4-10 6-7 9-4z" fill="#E3EBEB"/>
<path transform="translate(429,863)" d="m0 0 4 1v36l5-5 15-22 7-9h4l-1 4-16 24 1 6 11 23 7 17v3l-5-1-8-16-9-20-1-4h-2l-2 4-3 3-2 5-1 28-5 1-1-2v-75z" fill="#CCCCCC"/>
<path transform="translate(877,865)" d="m0 0h30v6h-29v27h27l1 5-1 1-27 1v28h28l1 1v5l-9 1-23-1-3-3-1-9v-53l2-6z" fill="#CCCCCC"/>
<path transform="translate(324,865)" d="m0 0h29v6h-29v27h27l1 5-1 1h-27v29h28l2 5-1 1-22 1-10-1-3-4-1-7v-54l3-7z" fill="#CCCCCC"/>
<path transform="translate(666,864)" d="m0 0 5 1 4 11 11 48 3 14v3h-5l-3-9-3-13v-3h-18l-2 1-5 22-2 2h-4l1-10 10-44 6-20zm2 12-3 7-5 22v4l2 1h14l-1-9-6-25z" fill="#CCCCCC"/>
<path transform="translate(213,865)" d="m0 0h29l1 4-1 2-28 1-1 26h27l1 5-1 1h-27v29h29l1 5-1 1-16 1-16-1-3-5v-63l2-4z" fill="#CCCCCC"/>
<path transform="translate(370,439)" d="m0 0h7l6 2 1 1-1 15-2 2h-3l-1-4v-8l-1-2-7 1-4 1-2 9 6 9 8 11v9l-4 8-7 6-6 3h-11l-8-5-3-5 1-5 2-2 5 1 4 8 3 2 7-1 7-6v-9l-6-9-6-7-1-3v-8l6-8 5-4z" fill="#CCCCCC"/>
<path transform="translate(580,441)" d="m0 0h8l4 3 1 4-5 1-3-2h-6l-5 6-7 23-3 11h10l14 2 2-9 4 1 1 1v6l-4 5-2 1h-19l-14-1h-8l1-3 6-4 5-13 4-16 6-9 7-6z" fill="#CCCCCC"/>
<path transform="translate(417,440)" d="m0 0h5l1 4-7 3-5 16-6 28 5 1 1 3h-24v-4l7-2 3-8 8-34-5-1v-4l2-1z" fill="#CCCCCC"/>
<path transform="translate(493,437)" d="m0 0h3l-1 8-11 44v2l9 1v3h-20l1-7 6-26-6 1 1-5 8-11z" fill="#CCCCCC"/>
<path transform="translate(519,447)" d="m0 0 4 1-2 13-5 22-5 6h-6l-1-5 1-2h5l-1-5-5-6v-7l4-8 7-7z" fill="#DC261A"/>
<path transform="translate(524,448)" d="m0 0h6l1 5-4 13 5 1v2h3v2l-9 1-3 11-1 6 10 1 1 3-27 1-2-1 1-3 7-3 3-4 6-26 1-1 1-7z" fill="#E8F0F0"/>
<path transform="translate(98,874)" d="m0 0 2 3 1 9 2 1v52l-2 2h-4l-1-4v-53z" fill="#CCCCCC"/>
<path transform="translate(627,441)" d="m0 0h24l4 1v7l-5 2-2-3-11-1-9 3-2-2-1-2-10 4-6 9 1 9 1 6h-5l-3-5-1-6 4-10 6-7 9-4z" fill="#CCCCCC"/>
<path transform="translate(448,443)" d="m0 0 3 1 2 6 2 3 1 9v9h-1l-1-6-4 13-6 11-4 5-7 4h-8l-2-2 1-6 12-1 4-4 5-12 4-18 1-9-9 1 2-2 5-1z" fill="#CCCCCC"/>
<path transform="translate(590,480)" d="m0 0 4 1 1 1v6l-4 5-2 1h-19l-14-1h-8l1-3 6-4h2v4l10 1-1-3 1-1h7l14 2z" fill="#CCCCCC"/>
<path transform="translate(526,445)" d="m0 0 13 1 4 4v8l-4 6-9 3-3-1 4-18-7-1z" fill="#DC261A"/>
<path transform="translate(458,440)" d="m0 0h2l2 9v17l-6 4-2-17-3-5-2-4v1l-12 3 1-4 7-1 5-2z" fill="#CCCCCC"/>
<path transform="translate(524,448)" d="m0 0h6l1 5-4 13 5 1v2h3v2l-9 1-2 4-3-1-1-3-2 1 1-7 2-9 1-1 1-7z" fill="#EBEAEA"/>
<path transform="translate(456,439)" d="m0 0h5l1 1 1 8v20h-1l-1-19-1-9-10 2h-4l-1 2h-7v3l3 1-5 4-2 4 2 13-5 1-3-5-1-7 3-7 3-5 7-4 7-2z" fill="#CCCCCC"/>
<path transform="translate(626,447)" d="m0 0 3 2h3l-1 9-1 4 9 1 3-2 4 1-1 7-5 1-1-2-13-1v-5h-2l-1-2v-7l2-5z" fill="#CCCCCC"/>
<path transform="translate(370,439)" d="m0 0h7l6 2 1 1-1 15-2 2h-3l-1-4v-8l-1-2-7 1-4 1-1 2-4-1-3 2 2-4 6-5z" fill="#CCCCCC"/>
<path transform="translate(462,441)" d="m0 0 4 4 2 12 8-1-2 5-7 11-3 3-1-2z" fill="#CCCCCC"/>
<path transform="translate(649,441)" d="m0 0 6 1v7l-5 2-2-3-11-1-9 3-1-5 2-2 4-1z" fill="#CCCCCC"/>
<path transform="translate(448,443)" d="m0 0 3 1 2 6 2 3 1 9v9h-1l-1-6-2 8-5-2 1-10 2-15-9 1 2-2 5-1z" fill="#CCCCCC"/>
<path transform="translate(126,864)" d="m0 0h5l-1 4v22l-1 14h-1l-1 11h-1z" fill="#CCCCCC"/>
<path transform="translate(501,459)" d="m0 0 1 2h3v10l6 7-1 5-6-2-4-7-1-2v-8z" fill="#CCCCCC"/>
<path transform="translate(493,437)" d="m0 0h3l-1 8-2 7h-1l1-8v-4l-9 9-2 8 1 11-3 1-1 3 1-10-6 1 1-5 8-11z" fill="#DFDFDF"/>
<path transform="translate(613,486)" d="m0 0h2l1 3h12l6 3 13 1v1h-15l-15-1h-11l1-3z" fill="#DCDADB"/>
<path transform="translate(436,489)" d="m0 0 2 1 1 3-3 4-3 1h-8l-2-2 1-6z" fill="#D1CFD0"/>
<path transform="translate(608,454)" d="m0 0h1v11l2 5v4h-5l-3-5-1-6 3-7z" fill="#E4E4E4"/>
<path transform="translate(417,440)" d="m0 0h5l1 4-7 3-5 16h-1l1-9 3-8 3-3h-11l-4 1 4 1v7l-2 4 1-9-5-1v-4l2-1z" fill="#B1ADAE"/>
<path transform="translate(513,445)" d="m0 0 3 1 1 3-8 7-3 5h-4l1-5 6-8z" fill="#DBDCDC"/>
<path transform="translate(647,480)" d="m0 0 5 1 1 1v6l-4 5-2-1 2-3-2 1h-10l-16-2 1-3v2h11l5 1h8l1-6z" fill="#CBC8C9"/>
<path transform="translate(524,448)" d="m0 0h6l1 5-2 7-5 1-1-2v-10z" fill="#EEF6F6"/>
<path transform="translate(590,480)" d="m0 0 4 1 1 1v6l-4 5-13-3v-1h10z" fill="#CFD3D4"/>
<path transform="translate(406,442)" d="m0 0h14l-5 4-2 3h-7l-1-3-4-2v-1z" fill="#F4FEFE"/>
<path transform="translate(473,461)" d="m0 0 5 1-2 5-5 8-5-1 2-6z" fill="#E0E6E6"/>
<path transform="translate(367,440)" d="m0 0 4 1v1l5 1v1l-11 3-1 2-4-1-3 2 2-4 6-5z" fill="#D7DBDB"/>
<path transform="translate(628,488)" d="m0 0 9 1h10 3l-3 4h-13l-6-3z" fill="#F5FEFE"/>
<path transform="translate(580,441)" d="m0 0h8l4 3 1 4-5 1-3-2-6-1 4-2h4v-2l-10 1z" fill="#CFD0D0"/>
<path transform="translate(531,442)" d="m0 0 6 2 2 2h-11l4 2-1 2-5-1h-2l-1 7h-1v-8h-5l1-2z" fill="#B1ADAE"/>
<path transform="translate(636,443)" d="m0 0h14 3 1v6l-5-2-10-1z" fill="#F9FEFE"/>
<path transform="translate(521,483)" d="m0 0h1v6l10 1 1 3-27 1 2-2 13-1-1-4z" fill="#B1ADAE"/>
<path transform="translate(642,461)" d="m0 0 4 1-1 7-5 1-3-6z" fill="#D1D4D4"/>
<path transform="translate(429,791)" d="m0 0 4 2 16 10 1 4-11-7-10-8z" fill="#C1C1C2"/>
<path transform="translate(555,486)" d="m0 0h2v4h2v2l-3 1h-8l1-3z" fill="#D8D6D6"/>
<path transform="translate(378,447)" d="m0 0 3 4 2-1v7l-2 2h-3l-1-4z" fill="#D7D5D6"/>
<path transform="translate(435,445)" d="m0 0 3 1 3 2-6 4h-3l-1 2h-2l2-5z" fill="#D3D6D6"/>
<path transform="translate(450,441)" d="m0 0 4 1h-2l-1 3h-2l-12 3 1-4 7-1z" fill="#FBFEFE"/>
<path transform="translate(523,441)" d="m0 0h7v1l-5 1-2 3-8 2v-4z" fill="#E0DEDF"/>
<path transform="translate(513,445)" d="m0 0 3 1 1 3-7 5-2-5z" fill="#B7B3B4"/>
<path transform="translate(425,491)" d="m0 0 8 1-4 5-4-1-1-4z" fill="#F3FEFE"/>
<path transform="translate(453,455)" d="m0 0 2 1 1 6v9h-1l-1-6-2 3v-8z" fill="#B1ADAE"/>
<path transform="translate(633,445)" d="m0 0 16 1 5 4-4 1-2-3-11-1-5 1z" fill="#B1ADAE"/>
<path transform="translate(649,441)" d="m0 0 6 1v7h-1l-1-5h-3l-15-1v-1z" fill="#B1ADAE"/>
<path transform="translate(480,458)" d="m0 0h2l1 10-3 1-1 3 1-10-2-1z" fill="#CCC9CA"/>
<path transform="translate(485,330)" d="m0 0 5 4 3 7-1 3-8-12z" fill="#E5E8E8"/>
<path transform="translate(609,468)" d="m0 0 2 2v4h-5l-2-2 1-3z" fill="#D3D1D1"/>
<path transform="translate(606,459)" d="m0 0h1v6h2v5l-5-1z" fill="#F0F8F8"/>
</svg>
