<?xml version="1.0" encoding="UTF-8"?>
<svg width="64" height="64" viewBox="0 0 64 64" fill="none" xmlns="http://www.w3.org/2000/svg">
    <path d="M31.885 0C15.415 0 16.492 7.144 16.492 7.144L16.514 14.54H32.277V16.815H10.513C10.513 16.815 0 15.585 0 32.177C0 48.769 9.183 48.177 9.183 48.177H14.919V40.431C14.919 40.431 14.636 31.248 24.024 31.248H39.677C39.677 31.248 48.462 31.392 48.462 22.756V8.683C48.462 8.683 49.742 0 31.885 0Z" fill="#366F9F"/>
    <path d="M32.115 64C48.585 64 47.508 56.856 47.508 56.856L47.486 49.46H31.723V47.185H53.487C53.487 47.185 64 48.415 64 31.823C64 15.231 54.817 15.823 54.817 15.823H49.081V23.569C49.081 23.569 49.364 32.752 39.976 32.752H24.323C24.323 32.752 15.538 32.608 15.538 41.244V55.317C15.538 55.317 14.258 64 32.115 64Z" fill="#FFC836"/>
    <circle cx="24" cy="11" r="3" fill="white"/>
    <circle cx="40" cy="53" r="3" fill="white"/>
</svg>